<svg xmlns="http://www.w3.org/2000/svg" xmlns:xlink="http://www.w3.org/1999/xlink" width="2000" zoomAndPan="magnify" viewBox="0 0 1500 1499.999933" height="2000" preserveAspectRatio="xMidYMid meet" version="1.0"><defs><g/><clipPath id="e7ff83daa7"><rect x="0" width="1451" y="0" height="1500"/></clipPath></defs><g transform="matrix(1, 0, 0, 1, 0, 0.000000000000112861)"><g clip-path="url(#e7ff83daa7)"><g fill="#ffffff" fill-opacity="1"><g transform="translate(-104.283461, 1218.825325)"><g><path d="M 217.828125 0 L 123.34375 0 L 123.34375 -929.046875 L 217.828125 -929.046875 L 217.828125 -511.765625 L 219.140625 -511.765625 L 661.34375 -929.046875 L 796.5 -929.046875 L 328.046875 -507.828125 L 822.75 0 L 683.65625 0 L 219.140625 -494.703125 L 217.828125 -494.703125 Z M 217.828125 0 "/></g></g></g><g fill="#ffffff" fill-opacity="1"><g transform="translate(701.410182, 1218.825325)"><g><path d="M 421.21875 0 L 326.734375 0 L 326.734375 -845.0625 L 15.75 -845.0625 L 15.75 -929.046875 L 732.203125 -929.046875 L 732.203125 -845.0625 L 421.21875 -845.0625 Z M 421.21875 0 "/></g></g></g></g></g></svg>